HIERARCHY
ROOT hip
{
  OFFSET 0 90.174 2.4664
  CHANNELS 6 Xposition Yposition Zposition Zrotation Xrotation Yrotation
  JOINT abdomen
  {
    OFFSET 0 -1.186 -1.5018
    CHANNELS 6 Xposition Yposition Zposition Zrotation Xrotation Yrotation
    JOINT abdomen2
    {
      OFFSET 0 9.964 0.2134
      CHANNELS 6 Xposition Yposition Zposition Zrotation Xrotation Yrotation
      JOINT chest
      {
        OFFSET 0 13.134 -3.2573
        CHANNELS 6 Xposition Yposition Zposition Zrotation Xrotation Yrotation
        JOINT neck
        {
          OFFSET 0 20.686 -1.6905
          CHANNELS 6 Xposition Yposition Zposition Zrotation Xrotation Yrotation
          JOINT head
          {
            OFFSET 0 7.238 -0.1237
            CHANNELS 6 Xposition Yposition Zposition Zrotation Xrotation Yrotation
            End Site
            {
              OFFSET 0 0 0
            }
          }
        }
        JOINT lCollar
        {
          OFFSET 1.7069 20.075 5.0056
          CHANNELS 6 Xposition Yposition Zposition Zrotation Xrotation Yrotation
          JOINT lShldr
          {
            OFFSET 13.6458 -0.047 -4.849
            CHANNELS 6 Xposition Yposition Zposition Zrotation Xrotation Yrotation
            JOINT lForeArm
            {
              OFFSET 28.3255 -0.9759 2.2888
              CHANNELS 6 Xposition Yposition Zposition Zrotation Xrotation Yrotation
              JOINT lHand
              {
                OFFSET 22.1583 -0.53 10.8316
                CHANNELS 6 Xposition Yposition Zposition Zrotation Xrotation Yrotation
                JOINT lThumb1
                {
                  OFFSET 0.786 0.112 2.5817
                  CHANNELS 6 Xposition Yposition Zposition Zrotation Xrotation Yrotation
                  JOINT lThumb2
                  {
                    OFFSET 0.3601 -0.878 4.2331
                    CHANNELS 6 Xposition Yposition Zposition Zrotation Xrotation Yrotation
                    JOINT lThumb2_End
                    {
                      OFFSET 1.8127 -1.216 2.2227
                      CHANNELS 6 Xposition Yposition Zposition Zrotation Xrotation Yrotation
                      End Site
                      {
                        OFFSET 0.0181 -0.0122 0.0222
                      }
                    }
                  }
                }
                JOINT lCarpal1
                {
                  OFFSET 0.9571 1.114 1.7695
                  CHANNELS 6 Xposition Yposition Zposition Zrotation Xrotation Yrotation
                  JOINT lIndex1
                  {
                    OFFSET 4.1246 0.487 4.1451
                    CHANNELS 6 Xposition Yposition Zposition Zrotation Xrotation Yrotation
                    JOINT lIndex2
                    {
                      OFFSET 3.4052 -1.454 2.7682
                      CHANNELS 6 Xposition Yposition Zposition Zrotation Xrotation Yrotation
                      JOINT lIndex2_End
                      {
                        OFFSET 1.4531 -1.795 1.2713
                        CHANNELS 6 Xposition Yposition Zposition Zrotation Xrotation Yrotation
                        End Site
                        {
                          OFFSET 0.0145 -0.0179 0.0127
                        }
                      }
                    }
                  }
                  JOINT lMid1
                  {
                    OFFSET 5.6954 0.21 2.1184
                    CHANNELS 6 Xposition Yposition Zposition Zrotation Xrotation Yrotation
                    JOINT lMid2
                    {
                      OFFSET 3.9766 -1.54 2.3863
                      CHANNELS 6 Xposition Yposition Zposition Zrotation Xrotation Yrotation
                      JOINT lMid2_End
                      {
                        OFFSET 1.4042 -1.926 1.125
                        CHANNELS 6 Xposition Yposition Zposition Zrotation Xrotation Yrotation
                        End Site
                        {
                          OFFSET 0.014 -0.0193 0.0113
                        }
                      }
                    }
                  }
                }
                JOINT lCarpal2
                {
                  OFFSET 2.0956 0.66 -0.3894
                  CHANNELS 6 Xposition Yposition Zposition Zrotation Xrotation Yrotation
                  JOINT lRing1
                  {
                    OFFSET 5.0395 -0.09 2.4971
                    CHANNELS 6 Xposition Yposition Zposition Zrotation Xrotation Yrotation
                    JOINT lRing2
                    {
                      OFFSET 3.7921 -1.552 1.4806
                      CHANNELS 6 Xposition Yposition Zposition Zrotation Xrotation Yrotation
                      JOINT lRing2_End
                      {
                        OFFSET 1.4655 -1.808 0.9609
                        CHANNELS 6 Xposition Yposition Zposition Zrotation Xrotation Yrotation
                        End Site
                        {
                          OFFSET 0.0147 -0.0181 0.0096
                        }
                      }
                    }
                  }
                  JOINT lPinky1
                  {
                    OFFSET 4.9141 -1.269 0.3591
                    CHANNELS 6 Xposition Yposition Zposition Zrotation Xrotation Yrotation
                    JOINT lPinky2
                    {
                      OFFSET 3.1477 -1.685 0.8462
                      CHANNELS 6 Xposition Yposition Zposition Zrotation Xrotation Yrotation
                      JOINT lPinky2_End
                      {
                        OFFSET 0.8055 -1.585 0.7955
                        CHANNELS 6 Xposition Yposition Zposition Zrotation Xrotation Yrotation
                        End Site
                        {
                          OFFSET 0.0081 -0.0158 0.008
                        }
                      }
                    }
                  }
                }
              }
            }
          }
        }
        JOINT rCollar
        {
          OFFSET -1.7069 20.075 5.0056
          CHANNELS 6 Xposition Yposition Zposition Zrotation Xrotation Yrotation
          JOINT rShldr
          {
            OFFSET -13.6458 -0.047 -4.849
            CHANNELS 6 Xposition Yposition Zposition Zrotation Xrotation Yrotation
            JOINT rForeArm
            {
              OFFSET -28.3255 -0.9759 2.2888
              CHANNELS 6 Xposition Yposition Zposition Zrotation Xrotation Yrotation
              JOINT rHand
              {
                OFFSET -22.1583 -0.53 10.8316
                CHANNELS 6 Xposition Yposition Zposition Zrotation Xrotation Yrotation
                JOINT rThumb1
                {
                  OFFSET -0.786 0.112 2.5817
                  CHANNELS 6 Xposition Yposition Zposition Zrotation Xrotation Yrotation
                  JOINT rThumb2
                  {
                    OFFSET -0.3601 -0.878 4.2331
                    CHANNELS 6 Xposition Yposition Zposition Zrotation Xrotation Yrotation
                    JOINT rThumb2_End
                    {
                      OFFSET -1.8127 -1.216 2.2227
                      CHANNELS 6 Xposition Yposition Zposition Zrotation Xrotation Yrotation
                      End Site
                      {
                        OFFSET -0.0181 -0.0122 0.0222
                      }
                    }
                  }
                }
                JOINT rCarpal1
                {
                  OFFSET -0.9571 1.114 1.7695
                  CHANNELS 6 Xposition Yposition Zposition Zrotation Xrotation Yrotation
                  JOINT rIndex1
                  {
                    OFFSET -4.1246 0.487 4.1451
                    CHANNELS 6 Xposition Yposition Zposition Zrotation Xrotation Yrotation
                    JOINT rIndex2
                    {
                      OFFSET -3.4052 -1.454 2.7682
                      CHANNELS 6 Xposition Yposition Zposition Zrotation Xrotation Yrotation
                      JOINT rIndex2_End
                      {
                        OFFSET -1.4531 -1.795 1.2713
                        CHANNELS 6 Xposition Yposition Zposition Zrotation Xrotation Yrotation
                        End Site
                        {
                          OFFSET -0.0145 -0.018 0.0127
                        }
                      }
                    }
                  }
                  JOINT rMid1
                  {
                    OFFSET -5.6954 0.21 2.1184
                    CHANNELS 6 Xposition Yposition Zposition Zrotation Xrotation Yrotation
                    JOINT rMid2
                    {
                      OFFSET -3.9766 -1.54 2.3863
                      CHANNELS 6 Xposition Yposition Zposition Zrotation Xrotation Yrotation
                      JOINT rMid2_End
                      {
                        OFFSET -1.4042 -1.926 1.125
                        CHANNELS 6 Xposition Yposition Zposition Zrotation Xrotation Yrotation
                        End Site
                        {
                          OFFSET -0.014 -0.0193 0.0113
                        }
                      }
                    }
                  }
                }
                JOINT rCarpal2
                {
                  OFFSET -2.0956 0.66 -0.3894
                  CHANNELS 6 Xposition Yposition Zposition Zrotation Xrotation Yrotation
                  JOINT rRing1
                  {
                    OFFSET -5.0395 -0.09 2.4971
                    CHANNELS 6 Xposition Yposition Zposition Zrotation Xrotation Yrotation
                    JOINT rRing2
                    {
                      OFFSET -3.7921 -1.552 1.4806
                      CHANNELS 6 Xposition Yposition Zposition Zrotation Xrotation Yrotation
                      JOINT rRing2_End
                      {
                        OFFSET -1.4655 -1.808 0.9609
                        CHANNELS 6 Xposition Yposition Zposition Zrotation Xrotation Yrotation
                        End Site
                        {
                          OFFSET -0.0147 -0.0181 0.0096
                        }
                      }
                    }
                  }
                  JOINT rPinky1
                  {
                    OFFSET -4.9141 -1.269 0.3592
                    CHANNELS 6 Xposition Yposition Zposition Zrotation Xrotation Yrotation
                    JOINT rPinky2
                    {
                      OFFSET -3.1477 -1.685 0.8462
                      CHANNELS 6 Xposition Yposition Zposition Zrotation Xrotation Yrotation
                      JOINT rPinky2_End
                      {
                        OFFSET -0.8055 -1.585 0.7955
                        CHANNELS 6 Xposition Yposition Zposition Zrotation Xrotation Yrotation
                        End Site
                        {
                          OFFSET -0.0081 -0.0158 0.008
                        }
                      }
                    }
                  }
                }
              }
            }
          }
        }
      }
    }
  }
  JOINT lThigh
  {
    OFFSET 8.367 -8.2066 0.5982
    CHANNELS 6 Xposition Yposition Zposition Zrotation Xrotation Yrotation
    JOINT lShin
    {
      OFFSET 2.1923 -43.463 -0.4932
      CHANNELS 6 Xposition Yposition Zposition Zrotation Xrotation Yrotation
      JOINT lFoot
      {
        OFFSET 0.7333 -45.8593 -2.6451
        CHANNELS 6 Xposition Yposition Zposition Zrotation Xrotation Yrotation
        End Site
        {
          OFFSET 2.6618 -4.2699 12.3931
        }
      }
    }
  }
  JOINT rThigh
  {
    OFFSET -8.367 -8.2066 0.5982
    CHANNELS 6 Xposition Yposition Zposition Zrotation Xrotation Yrotation
    JOINT rShin
    {
      OFFSET -2.1923 -43.463 -0.4931
      CHANNELS 6 Xposition Yposition Zposition Zrotation Xrotation Yrotation
      JOINT rFoot
      {
        OFFSET -0.7333 -45.8593 -2.6451
        CHANNELS 6 Xposition Yposition Zposition Zrotation Xrotation Yrotation
        End Site
        {
          OFFSET -2.6618 -4.2699 12.3931
        }
      }
    }
  }
}
MOTION
Frames:	4
Frame Time:	0.0333333
-0.0267996 88.8783 2.12897 -180 -6.99617 -7.01671e-015 -3.46945e-018 -1.186 -1.5018 -0.116613 -3.27098 -0.243706 0 9.964 0.2134 -0.247795 -6.54142 -0.495305 0 13.134 -3.2573 -0.247795 -6.54142 -0.495305 5.55112e-017 20.686 -1.6905 7.81047e-006 26.8647 -1.85089e-006 0 7.238 -0.1237 1.66586e-007 -37.6216 4.14735e-007 1.7069 20.075 5.0056 -19.2136 6.3516 22.8862 13.6458 -0.047 -4.849 0.642704 -0.211588 -70.9523 28.3255 -0.9759 2.2888 -21.2869 -1.13308 -50.1236 22.1583 -0.53 10.8316 -47.1146 -33.7011 -19.399 0.786 0.112 2.5817 -6.36111e-015 -4.77083e-015 -2.78299e-015 0.3601 -0.878 4.2331 2.75869e-032 -3.97569e-015 3.97569e-016 1.8127 -1.216 2.2227 -3.18055e-015 -1.59028e-015 -1.19271e-015 0.9571 1.114 1.7695 -6.36111e-015 -4.77083e-015 -2.78299e-015 4.1246 0.487 4.1451 -3.18055e-015 2.38542e-015 6.75868e-015 3.4052 -1.454 2.7682 3.18055e-015 -7.95139e-016 2.78299e-015 1.4531 -1.795 1.2713 3.18055e-015 7.95139e-016 -7.95139e-016 5.6954 0.21 2.1184 -3.18055e-015 2.38542e-015 6.75868e-015 3.9766 -1.54 2.3863 3.18055e-015 -7.95139e-016 2.78299e-015 1.4042 -1.926 1.125 3.18055e-015 7.95139e-016 -7.95139e-016 2.0956 0.66 -0.3894 -6.36111e-015 -4.77083e-015 -2.78299e-015 5.0395 -0.09 2.4971 -3.18055e-015 2.38542e-015 6.75868e-015 3.7921 -1.552 1.4806 3.18055e-015 -7.95139e-016 2.78299e-015 1.4655 -1.808 0.9609 3.18055e-015 7.95139e-016 -7.95139e-016 4.9141 -1.269 0.3591 -3.18055e-015 2.38542e-015 6.75868e-015 3.1477 -1.685 0.8462 3.18055e-015 -7.95139e-016 2.78299e-015 0.8055 -1.585 0.7955 3.18055e-015 7.95139e-016 -7.95139e-016 -1.7069 20.075 5.0056 16.3917 4.46225 -24.4845 -13.6458 -0.047 -4.849 -0.908654 -1.55062 81.425 -28.3255 -0.9759 2.2888 18.6224 -6.81631 46.157 -22.1583 -0.53 10.8316 51.1286 -28.7709 21.85 -0.786 0.112 2.5817 -6.36111e-015 6.36111e-015 -1.59028e-015 -0.3601 -0.878 4.2331 -3.18055e-015 6.36111e-015 3.18055e-015 -1.8127 -1.216 2.2227 -3.18055e-015 1.59028e-015 4.77083e-015 -0.9571 1.114 1.7695 -6.36111e-015 3.18055e-015 -1.59028e-015 -4.1246 0.487 4.1451 -1.27222e-014 -1.59028e-015 3.18055e-015 -3.4052 -1.454 2.7682 -1.27222e-014 1.11319e-014 -1.59028e-015 -1.4531 -1.795 1.2713 -3.18055e-015 4.77083e-015 1.59028e-015 -5.6954 0.21 2.1184 -1.27222e-014 -1.59028e-015 3.18055e-015 -3.9766 -1.54 2.3863 -1.27222e-014 1.11319e-014 -1.59028e-015 -1.4042 -1.926 1.125 -3.18055e-015 4.77083e-015 1.59028e-015 -2.0956 0.66 -0.3894 -6.36111e-015 3.18055e-015 -1.59028e-015 -5.0395 -0.09 2.4971 -1.27222e-014 -1.59028e-015 3.18055e-015 -3.7921 -1.552 1.4806 -1.27222e-014 1.11319e-014 -1.59028e-015 -1.4655 -1.808 0.9609 -3.18055e-015 4.77083e-015 1.59028e-015 -4.9141 -1.269 0.3592 -1.27222e-014 -1.59028e-015 3.18055e-015 -3.1477 -1.685 0.8462 -1.27222e-014 1.11319e-014 -1.59028e-015 -0.8055 -1.585 0.7955 -3.18055e-015 4.77083e-015 1.59028e-015 8.367 -8.2066 0.5982 94.1937 -63.8642 86.0051 2.1923 -43.463 -0.4932 -98.4216 30.6206 103.544 0.7333 -45.8593 -2.6451 24.6291 19.6495 -30.5538 -8.367 -8.2066 0.5982 -86.4617 -63.068 -81.2315 -2.1923 -43.463 -0.4931 79.3873 28.5557 -93.2125 -0.7333 -45.8593 -2.6451 -26.5553 19.1778 32.7382 
-0.0267981 88.8783 2.12897 -180 -6.99617 -7.01671e-015 -3.46945e-018 -1.186 -1.5018 -0.116613 -3.27098 -0.243705 0 9.964 0.2134 -0.247795 -6.54142 -0.495305 0 13.134 -3.2573 -0.247795 -6.54141 -0.495305 -5.55112e-017 20.686 -1.6905 1.6571e-006 26.8649 1.1245e-006 -1.66533e-016 7.238 -0.1237 6.07088e-008 -37.6216 2.84935e-007 1.7069 20.075 5.0056 -19.2136 6.3516 22.8862 13.6458 -0.047 -4.849 0.642705 -0.211589 -70.9524 28.3255 -0.9759 2.2888 -21.2869 -1.13309 -50.1236 22.1583 -0.53 10.8316 -47.1146 -33.7011 -19.399 0.786 0.112 2.5817 5.71971e-006 -1.33729e-006 -5.49835e-007 0.3601 -0.878 4.2331 3.18055e-015 -3.97569e-016 1.98785e-015 1.8127 -1.216 2.2227 1.23534e-006 -5.79415e-007 -1.00684e-006 0.9571 1.114 1.7695 3.18055e-015 -7.15625e-015 -3.97569e-015 4.1246 0.487 4.1451 5.71971e-006 -1.33729e-006 -5.49835e-007 3.4052 -1.454 2.7682 1.27222e-014 -2.38542e-015 2.38542e-015 1.4531 -1.795 1.2713 1.23534e-006 -5.79415e-007 -1.00684e-006 5.6954 0.21 2.1184 5.71971e-006 -1.33729e-006 -5.49835e-007 3.9766 -1.54 2.3863 1.27222e-014 -2.38542e-015 2.38542e-015 1.4042 -1.926 1.125 1.23534e-006 -5.79415e-007 -1.00684e-006 2.0956 0.66 -0.3894 3.18055e-015 -7.15625e-015 -3.97569e-015 5.0395 -0.09 2.4971 5.71971e-006 -1.33729e-006 -5.49835e-007 3.7921 -1.552 1.4806 1.27222e-014 -2.38542e-015 2.38542e-015 1.4655 -1.808 0.9609 1.23534e-006 -5.79415e-007 -1.00684e-006 4.9141 -1.269 0.3591 5.71971e-006 -1.33729e-006 -5.49835e-007 3.1477 -1.685 0.8462 1.27222e-014 -2.38542e-015 2.38542e-015 0.8055 -1.585 0.7955 1.23534e-006 -5.79415e-007 -1.00684e-006 -1.7069 20.075 5.0056 16.3917 4.46224 -24.4845 -13.6458 -0.047 -4.849 -0.908654 -1.55062 81.425 -28.3255 -0.9759 2.2888 18.6224 -6.81632 46.157 -22.1583 -0.53 10.8316 51.1286 -28.7709 21.85 -0.786 0.112 2.5817 9.54166e-015 1.59028e-015 6.36111e-015 -0.3601 -0.878 4.2331 6.02835e-007 1.09895e-006 3.68889e-006 -1.8127 -1.216 2.2227 5.95324e-008 2.4591e-006 -1.39604e-006 -0.9571 1.114 1.7695 3.18055e-015 1.59028e-015 1.59028e-015 -4.1246 0.487 4.1451 -3.18055e-015 1.59028e-015 6.36111e-015 -3.4052 -1.454 2.7682 6.02835e-007 1.09895e-006 3.68889e-006 -1.4531 -1.795 1.2713 5.95324e-008 2.4591e-006 -1.39604e-006 -5.6954 0.21 2.1184 -3.18055e-015 1.59028e-015 6.36111e-015 -3.9766 -1.54 2.3863 6.02835e-007 1.09895e-006 3.68889e-006 -1.4042 -1.926 1.125 5.95324e-008 2.4591e-006 -1.39604e-006 -2.0956 0.66 -0.3894 3.18055e-015 1.59028e-015 1.59028e-015 -5.0395 -0.09 2.4971 -3.18055e-015 1.59028e-015 6.36111e-015 -3.7921 -1.552 1.4806 6.02835e-007 1.09895e-006 3.68889e-006 -1.4655 -1.808 0.9609 5.95324e-008 2.4591e-006 -1.39604e-006 -4.9141 -1.269 0.3592 -3.18055e-015 1.59028e-015 6.36111e-015 -3.1477 -1.685 0.8462 6.02835e-007 1.09895e-006 3.68889e-006 -0.8055 -1.585 0.7955 5.95324e-008 2.4591e-006 -1.39604e-006 8.367 -8.2066 0.5982 94.1937 -63.8642 86.0052 2.1923 -43.463 -0.4932 -98.4216 30.6206 103.544 0.7333 -45.8593 -2.6451 24.6291 19.6495 -30.5538 -8.367 -8.2066 0.5982 -86.4617 -63.068 -81.2315 -2.1923 -43.463 -0.4931 79.3873 28.5557 -93.2125 -0.7333 -45.8593 -2.6451 -26.5553 19.1778 32.7382 
-0.0291694 88.8778 2.11951 -180 -6.99617 -7.01671e-015 0 -1.186 -1.5018 -0.116237 -3.38728 -0.24414 -2.77556e-017 9.964 0.2134 -0.247611 -6.77401 -0.496483 0 13.134 -3.2573 -0.247611 -6.774 -0.496483 2.77556e-017 20.686 -1.6905 -4.31158e-007 26.2831 5.46908e-006 5.55112e-017 7.238 -0.1237 -7.23367e-008 -35.9478 -4.36838e-007 1.7069 20.075 5.0056 -19.354 6.72549 22.8783 13.6458 -0.047 -4.849 0.642701 -0.211587 -70.9523 28.3255 -0.9759 2.2888 -21.2118 -1.31655 -49.5766 22.1583 -0.53 10.8316 -47.3867 -33.4744 -19.4865 0.786 0.112 2.5817 6.36111e-015 -6.75868e-015 -1.59028e-015 0.3601 -0.878 4.2331 6.36111e-015 -1.19271e-015 3.18055e-015 1.8127 -1.216 2.2227 6.36111e-015 -3.97569e-015 4.77083e-015 0.9571 1.114 1.7695 -3.18055e-015 -3.97569e-015 -3.57812e-015 4.1246 0.487 4.1451 -1.27222e-014 7.95139e-016 4.37326e-015 3.4052 -1.454 2.7682 3.18055e-015 -6.36111e-015 -0 1.4531 -1.795 1.2713 6.36111e-015 -3.97569e-015 7.15625e-015 5.6954 0.21 2.1184 -1.27222e-014 7.95139e-016 4.37326e-015 3.9766 -1.54 2.3863 3.18055e-015 -6.36111e-015 -0 1.4042 -1.926 1.125 6.36111e-015 -3.97569e-015 7.15625e-015 2.0956 0.66 -0.3894 -3.18055e-015 -3.97569e-015 -3.57812e-015 5.0395 -0.09 2.4971 -1.27222e-014 7.95139e-016 4.37326e-015 3.7921 -1.552 1.4806 3.18055e-015 -6.36111e-015 -0 1.4655 -1.808 0.9609 6.36111e-015 -3.97569e-015 7.15625e-015 4.9141 -1.269 0.3591 -1.27222e-014 7.95139e-016 4.37326e-015 3.1477 -1.685 0.8462 3.18055e-015 -6.36111e-015 -0 0.8055 -1.585 0.7955 6.36111e-015 -3.97569e-015 7.15625e-015 -1.7069 20.075 5.0056 16.4988 4.88727 -24.3795 -13.6458 -0.047 -4.849 -0.908649 -1.55062 81.425 -28.3255 -0.9759 2.2888 18.5104 -7.00107 45.5139 -22.1583 -0.53 10.8316 51.3882 -28.5091 21.9651 -0.786 0.112 2.5817 3.18055e-015 -4.77083e-015 3.18055e-015 -0.3601 -0.878 4.2331 -6.36111e-015 -4.77083e-015 1.59028e-015 -1.8127 -1.216 2.2227 6.62086e-031 -7.95139e-015 4.77083e-015 -0.9571 1.114 1.7695 3.18055e-015 -1.59028e-015 -0 -4.1246 0.487 4.1451 3.18055e-015 -1.11319e-014 6.36111e-015 -3.4052 -1.454 2.7682 2.64834e-031 -4.77083e-015 3.18055e-015 -1.4531 -1.795 1.2713 -1.90833e-014 3.18055e-015 -3.18055e-015 -5.6954 0.21 2.1184 3.18055e-015 -1.11319e-014 6.36111e-015 -3.9766 -1.54 2.3863 2.64834e-031 -4.77083e-015 3.18055e-015 -1.4042 -1.926 1.125 -1.90833e-014 3.18055e-015 -3.18055e-015 -2.0956 0.66 -0.3894 3.18055e-015 -1.59028e-015 -0 -5.0395 -0.09 2.4971 3.18055e-015 -1.11319e-014 6.36111e-015 -3.7921 -1.552 1.4806 2.64834e-031 -4.77083e-015 3.18055e-015 -1.4655 -1.808 0.9609 -1.90833e-014 3.18055e-015 -3.18055e-015 -4.9141 -1.269 0.3592 3.18055e-015 -1.11319e-014 6.36111e-015 -3.1477 -1.685 0.8462 2.64834e-031 -4.77083e-015 3.18055e-015 -0.8055 -1.585 0.7955 -1.90833e-014 3.18055e-015 -3.18055e-015 8.367 -8.2066 0.5982 94.9724 -64.0721 86.6199 2.1923 -43.463 -0.4932 -98.1028 30.6264 103.391 0.7333 -45.8593 -2.6451 24.4844 20.0694 -30.3168 -8.367 -8.2066 0.5982 -87.2069 -63.3246 -81.685 -2.1923 -43.463 -0.4931 79.3821 28.5551 -93.2071 -0.7333 -45.8593 -2.6451 -26.3002 19.5515 32.4036 
-0.0310992 88.8775 2.11173 -180 -6.99617 -7.01671e-015 0 -1.186 -1.5018 -0.115926 -3.48245 -0.244491 0 9.964 0.2134 -0.247459 -6.96437 -0.49744 -5.55112e-017 13.134 -3.2573 -0.247459 -6.96437 -0.49744 0 20.686 -1.6905 -6.97039e-006 25.8073 3.60658e-006 -1.11022e-016 7.238 -0.1237 -6.7133e-008 -34.5741 -1.09952e-007 1.7069 20.075 5.0056 -19.4689 7.03143 22.8725 13.6458 -0.047 -4.849 0.642693 -0.211594 -70.9524 28.3255 -0.9759 2.2888 -21.1491 -1.46584 -49.1285 22.1583 -0.53 10.8316 -47.6085 -33.2887 -19.5569 0.786 0.112 2.5817 -2.35642e-006 6.91772e-008 1.96262e-006 0.3601 -0.878 4.2331 -6.36111e-015 1.98785e-015 -6.75868e-015 1.8127 -1.216 2.2227 0 0 -1.19271e-015 0.9571 1.114 1.7695 -3.18055e-015 -7.95139e-016 3.97569e-016 4.1246 0.487 4.1451 -2.35642e-006 6.91772e-008 1.96262e-006 3.4052 -1.454 2.7682 -3.18055e-015 8.74653e-015 -0 1.4531 -1.795 1.2713 -3.18055e-015 1.19271e-015 -4.37326e-015 5.6954 0.21 2.1184 -2.35642e-006 6.91772e-008 1.96262e-006 3.9766 -1.54 2.3863 -3.18055e-015 8.74653e-015 -0 1.4042 -1.926 1.125 -3.18055e-015 1.19271e-015 -4.37326e-015 2.0956 0.66 -0.3894 -3.18055e-015 -7.95139e-016 3.97569e-016 5.0395 -0.09 2.4971 -2.35642e-006 6.91772e-008 1.96262e-006 3.7921 -1.552 1.4806 -3.18055e-015 8.74653e-015 -0 1.4655 -1.808 0.9609 -3.18055e-015 1.19271e-015 -4.37326e-015 4.9141 -1.269 0.3591 -2.35642e-006 6.91772e-008 1.96262e-006 3.1477 -1.685 0.8462 -3.18055e-015 8.74653e-015 -0 0.8055 -1.585 0.7955 -3.18055e-015 1.19271e-015 -4.37326e-015 -1.7069 20.075 5.0056 16.5861 5.23517 -24.294 -13.6458 -0.047 -4.849 -0.908655 -1.55062 81.425 -28.3255 -0.9759 2.2888 18.417 -7.15121 44.987 -22.1583 -0.53 10.8316 51.5997 -28.2945 22.0579 -0.786 0.112 2.5817 6.36111e-015 3.18055e-015 1.59028e-015 -0.3601 -0.878 4.2331 -2.44797e-006 -3.22008e-006 -4.95642e-006 -1.8127 -1.216 2.2227 2.44797e-006 3.22008e-006 4.95642e-006 -0.9571 1.114 1.7695 6.36111e-015 3.18055e-015 1.59028e-015 -4.1246 0.487 4.1451 -1.90833e-014 -6.36111e-015 6.36111e-015 -3.4052 -1.454 2.7682 -2.44797e-006 -3.22008e-006 -4.95642e-006 -1.4531 -1.795 1.2713 2.44797e-006 3.22008e-006 4.95642e-006 -5.6954 0.21 2.1184 -1.90833e-014 -6.36111e-015 6.36111e-015 -3.9766 -1.54 2.3863 -2.44797e-006 -3.22008e-006 -4.95642e-006 -1.4042 -1.926 1.125 2.44797e-006 3.22008e-006 4.95642e-006 -2.0956 0.66 -0.3894 6.36111e-015 3.18055e-015 1.59028e-015 -5.0395 -0.09 2.4971 -1.90833e-014 -6.36111e-015 6.36111e-015 -3.7921 -1.552 1.4806 -2.44797e-006 -3.22008e-006 -4.95642e-006 -1.4655 -1.808 0.9609 2.44797e-006 3.22008e-006 4.95642e-006 -4.9141 -1.269 0.3592 -1.90833e-014 -6.36111e-015 6.36111e-015 -3.1477 -1.685 0.8462 -2.44797e-006 -3.22008e-006 -4.95642e-006 -0.8055 -1.585 0.7955 2.44797e-006 3.22008e-006 4.95642e-006 8.367 -8.2066 0.5982 95.6181 -64.2393 87.1314 2.1923 -43.463 -0.4932 -97.842 30.6307 103.265 0.7333 -45.8593 -2.6451 24.3643 20.4127 -30.1215 -8.367 -8.2066 0.5982 -87.8253 -63.5326 -82.0649 -2.1923 -43.463 -0.4931 79.3779 28.5546 -93.2025 -0.7333 -45.8593 -2.6451 -26.0894 19.8563 32.1277 
